<?xml version="1.0" encoding="UTF-8"?>
<!DOCTYPE svg PUBLIC "-//W3C//DTD SVG 1.1//EN" "http://www.w3.org/Graphics/SVG/1.1/DTD/svg11.dtd">
<svg xmlns="http://www.w3.org/2000/svg" version="1.1" width="227px" height="240px" style="shape-rendering:geometricPrecision; text-rendering:geometricPrecision; image-rendering:optimizeQuality; fill-rule:evenodd; clip-rule:evenodd" xmlns:xlink="http://www.w3.org/1999/xlink">
<g><path style="opacity:0.817" fill="#fefffe" d="M 136.5,-0.5 C 145.5,-0.5 154.5,-0.5 163.5,-0.5C 172.629,1.53925 181.629,4.37259 190.5,8C 193.414,10.6705 193.081,12.8372 189.5,14.5C 166.966,3.97684 143.966,2.81017 120.5,11C 92.3416,27.7192 63.6749,28.7192 34.5,14C 32.6775,9.15424 34.3442,7.48757 39.5,9C 59.555,19.9087 80.2217,21.2421 101.5,13C 112.638,6.79321 124.304,2.29321 136.5,-0.5 Z"/></g>
<g><path style="opacity:0.816" fill="#fefffe" d="M 147.5,44.5 C 159.828,44.8325 171.828,46.9992 183.5,51C 186.656,51.9372 189.489,53.4372 192,55.5C 192.775,57.9493 191.942,59.616 189.5,60.5C 168.848,50.7605 147.515,48.9272 125.5,55C 116.399,59.5509 107.065,63.5509 97.5,67C 75.4569,73.2557 54.4569,70.7557 34.5,59.5C 32.822,56.5258 33.6553,54.8592 37,54.5C 57.85,65.6962 79.35,67.1962 101.5,59C 115.929,50.7989 131.262,45.9656 147.5,44.5 Z"/></g>
<g><path style="opacity:0.813" fill="#fefffe" d="M 145.5,90.5 C 162.024,90.1736 177.524,93.8403 192,101.5C 192.775,103.949 191.942,105.616 189.5,106.5C 169.88,96.975 149.547,94.8083 128.5,100C 118.282,104.609 107.948,108.943 97.5,113C 75.4761,119.068 54.4761,116.568 34.5,105.5C 32.822,102.526 33.6553,100.859 37,100.5C 57.8587,111.546 79.3587,113.046 101.5,105C 115.261,96.9282 129.928,92.0949 145.5,90.5 Z"/></g>
<g><path style="opacity:0.73" fill="#fefffe" d="M -0.5,141.5 C 18.4961,139.647 24.9961,147.647 19,165.5C 14.2313,169.478 8.73132,171.144 2.5,170.5C 2.5,179.167 2.5,187.833 2.5,196.5C 1.5,196.5 0.5,196.5 -0.5,196.5C -0.5,178.167 -0.5,159.833 -0.5,141.5 Z M 2.5,144.5 C 11.7119,143.25 17.0452,147.083 18.5,156C 17.0452,164.917 11.7119,168.75 2.5,167.5C 2.5,159.833 2.5,152.167 2.5,144.5 Z"/></g>
<g><path style="opacity:0.663" fill="#fefffe" d="M 42.5,141.5 C 58.918,138.95 70.0846,145.284 76,160.5C 79.3238,176.686 73.4904,188.186 58.5,195C 41.4042,198.704 29.5708,192.537 23,176.5C 19.9067,159.439 26.4067,147.772 42.5,141.5 Z M 44.5,144.5 C 58.9752,143.481 68.4752,149.814 73,163.5C 74.0099,184.156 64.1766,193.656 43.5,192C 27.344,185.517 22.1773,174.017 28,157.5C 31.9618,151.019 37.4618,146.686 44.5,144.5 Z"/></g>
<g><path style="opacity:0.723" fill="#fefffe" d="M 80.5,141.5 C 81.5,141.5 82.5,141.5 83.5,141.5C 83.3334,156.504 83.5001,171.504 84,186.5C 88.3191,192.98 93.8191,194.147 100.5,190C 101.46,188.581 102.293,187.081 103,185.5C 103.5,170.837 103.667,156.17 103.5,141.5C 104.5,141.5 105.5,141.5 106.5,141.5C 106.667,156.837 106.5,172.17 106,187.5C 103.767,193.456 99.4334,196.456 93,196.5C 87.4739,196.074 83.4739,193.407 81,188.5C 80.5001,172.837 80.3334,157.17 80.5,141.5 Z"/></g>
<g><path style="opacity:0.64" fill="#fefffe" d="M 120.5,141.5 C 125.297,141.121 129.964,141.621 134.5,143C 137.892,145.285 139.559,148.452 139.5,152.5C 136.754,152.072 135.087,150.406 134.5,147.5C 128.619,143.175 123.119,143.509 118,148.5C 115.033,154.774 116.533,159.608 122.5,163C 130.257,163.691 136.757,166.858 142,172.5C 146.014,180.219 144.848,187.053 138.5,193C 126.971,198.82 117.805,196.32 111,185.5C 109.69,182.497 109.524,179.497 110.5,176.5C 111.167,176.833 111.833,177.167 112.5,177.5C 116.036,192.273 124.369,196.106 137.5,189C 142.588,182.594 141.921,176.594 135.5,171C 130.754,168.584 125.754,166.917 120.5,166C 112.249,160.935 110.415,154.101 115,145.5C 116.812,144.023 118.645,142.69 120.5,141.5 Z"/></g>
<g><path style="opacity:0.681" fill="#fefffe" d="M 157.5,141.5 C 158.75,141.577 159.583,142.244 160,143.5C 164.488,161.109 168.655,178.776 172.5,196.5C 170.876,196.64 169.71,195.973 169,194.5C 167.18,187.889 165.68,181.222 164.5,174.5C 160.5,174.5 156.5,174.5 152.5,174.5C 151.004,181.153 149.504,187.819 148,194.5C 147.29,195.973 146.124,196.64 144.5,196.5C 148.367,178.034 152.7,159.701 157.5,141.5 Z M 157.5,153.5 C 158.586,153.62 159.253,154.287 159.5,155.5C 160.679,160.549 162.012,165.549 163.5,170.5C 160.167,171.833 156.833,171.833 153.5,170.5C 155.308,164.937 156.641,159.27 157.5,153.5 Z"/></g>
<g><path style="opacity:0.635" fill="#fefffe" d="M 164.5,141.5 C 188.85,139.357 200.684,150.357 200,174.5C 197.043,187.623 188.876,194.957 175.5,196.5C 175.33,195.178 175.663,194.011 176.5,193C 192.554,188.388 199.054,177.888 196,161.5C 190.755,149.622 181.588,143.955 168.5,144.5C 168.666,150.176 168.499,155.843 168,161.5C 165.074,155.204 163.907,148.537 164.5,141.5 Z"/></g>
<g><path style="opacity:0.682" fill="#fefffe" d="M 226.5,191.5 C 226.5,193.167 226.5,194.833 226.5,196.5C 225.5,196.5 224.5,196.5 223.5,196.5C 221.833,189.167 220.167,181.833 218.5,174.5C 214.5,174.5 210.5,174.5 206.5,174.5C 205.322,181.554 203.822,188.554 202,195.5C 200.989,196.337 199.822,196.67 198.5,196.5C 202.505,178.811 206.672,161.144 211,143.5C 211.71,142.027 212.876,141.36 214.5,141.5C 217.898,158.42 221.898,175.086 226.5,191.5 Z M 212.5,152.5 C 214.611,158.606 216.278,164.939 217.5,171.5C 214.15,171.665 210.817,171.498 207.5,171C 209.398,164.909 211.065,158.742 212.5,152.5 Z"/></g>
<g><path style="opacity:0.577" fill="#fefffe" d="M 88.5,221.5 C 85.272,222.414 81.9387,222.747 78.5,222.5C 76.7871,230.208 72.4538,235.875 65.5,239.5C 61.1667,239.5 56.8333,239.5 52.5,239.5C 44.0843,234.782 42.4176,228.282 47.5,220C 48.7589,219.018 50.0922,218.685 51.5,219C 44.8333,224.333 44.8333,229.667 51.5,235C 62.7441,238.549 70.7441,234.716 75.5,223.5C 72.9327,222.146 70.5994,222.48 68.5,224.5C 67.4173,223.635 67.2506,222.635 68,221.5C 70.9304,219.934 74.0971,219.1 77.5,219C 79.1667,216 80.8333,213 82.5,210C 75.0201,204.457 67.8534,204.624 61,210.5C 58.3803,215.552 59.8803,217.386 65.5,216C 67,215.167 68.1667,214 69,212.5C 68.4246,218.133 65.2579,219.966 59.5,218C 55.7142,214.153 55.7142,210.153 59.5,206C 62.3087,204.342 65.3087,203.175 68.5,202.5C 73.9622,203.265 79.1288,204.932 84,207.5C 87.1759,205.842 88.6759,206.842 88.5,210.5C 91.3369,212.261 93.6702,211.761 95.5,209C 96.7932,208.51 98.1266,208.343 99.5,208.5C 99.105,215.624 96.2717,221.624 91,226.5C 89.872,228.345 89.372,230.345 89.5,232.5C 90.552,232.649 91.552,232.483 92.5,232C 94.2071,228.752 96.0404,225.585 98,222.5C 102.244,218.029 105.41,218.529 107.5,224C 106.964,227.072 105.63,229.739 103.5,232C 104.167,232.667 104.833,232.667 105.5,232C 109.33,227.17 111.663,221.67 112.5,215.5C 115.534,215.609 116.534,216.943 115.5,219.5C 116.689,220.429 118.022,220.762 119.5,220.5C 117.996,224.478 116.83,228.478 116,232.5C 118.37,229.392 120.37,226.059 122,222.5C 126.493,218.185 130.327,218.518 133.5,223.5C 131.229,226.159 130.062,229.159 130,232.5C 132.624,228.752 135.124,224.919 137.5,221C 140.542,221.523 143.542,221.356 146.5,220.5C 146.351,221.552 146.517,222.552 147,223.5C 149.29,221.405 151.79,220.738 154.5,221.5C 152.833,224.833 151.167,228.167 149.5,231.5C 149.833,231.833 150.167,232.167 150.5,232.5C 153.031,228.617 155.697,224.783 158.5,221C 168.053,218.281 170.22,221.114 165,229.5C 164.333,230.5 164.333,231.5 165,232.5C 168.55,227.694 171.05,222.36 172.5,216.5C 173.325,215.614 174.325,215.281 175.5,215.5C 175.5,217.167 175.5,218.833 175.5,220.5C 176.5,220.5 177.5,220.5 178.5,220.5C 177.336,224.475 176.503,228.475 176,232.5C 177.366,230.63 178.533,228.63 179.5,226.5C 180.167,225.167 180.833,225.167 181.5,226.5C 180.453,229.43 178.787,231.93 176.5,234C 172.333,235.167 170.833,233.667 172,229.5C 172.36,227.579 173.194,225.912 174.5,224.5C 174.192,223.692 173.692,223.025 173,222.5C 171.333,225.833 169.667,229.167 168,232.5C 166.211,234.229 164.044,234.896 161.5,234.5C 161.649,233.448 161.483,232.448 161,231.5C 159.883,233.124 158.383,234.124 156.5,234.5C 153.222,233.797 149.889,233.797 146.5,234.5C 146.578,231.748 146.745,229.082 147,226.5C 144.594,228.983 142.427,231.65 140.5,234.5C 139.5,234.167 138.833,233.5 138.5,232.5C 139.548,230.544 140.048,228.544 140,226.5C 137.684,228.47 135.851,230.804 134.5,233.5C 132.235,234.647 129.902,234.814 127.5,234C 126.5,230.667 125.5,230.667 124.5,234C 122.251,234.863 120.418,234.363 119,232.5C 117.211,234.229 115.044,234.896 112.5,234.5C 111.9,230.484 112.9,226.984 115.5,224C 114.584,223.626 113.75,223.126 113,222.5C 111.733,226.869 109.567,230.703 106.5,234C 102.995,233.896 99.3285,234.063 95.5,234.5C 95.6495,233.448 95.4828,232.448 95,231.5C 92.916,234.451 90.2493,235.117 87,233.5C 86.535,229.389 87.035,225.389 88.5,221.5 Z M 88.5,221.5 C 86.0521,220.527 83.3854,220.194 80.5,220.5C 81.176,216.813 82.676,213.48 85,210.5C 87.3976,211.856 89.8976,213.023 92.5,214C 90.9958,216.514 89.6624,219.014 88.5,221.5 Z M 103.5,221.5 C 104.478,221.811 105.145,222.478 105.5,223.5C 105.322,226.804 103.656,228.471 100.5,228.5C 100.762,229.978 100.429,231.311 99.5,232.5C 98.7915,228.222 100.125,224.555 103.5,221.5 Z M 128.5,221.5 C 129.239,221.369 129.906,221.536 130.5,222C 128.377,225.951 125.711,229.451 122.5,232.5C 122.613,227.994 124.613,224.327 128.5,221.5 Z M 163.5,221.5 C 164.239,221.369 164.906,221.536 165.5,222C 162.943,225.628 160.277,229.128 157.5,232.5C 156.432,230.813 156.599,229.146 158,227.5C 159.36,224.977 161.193,222.977 163.5,221.5 Z"/></g>
</svg>
