<svg xmlns:mydata="http://www.w3.org/2000/svg" mydata:contrastcolor="003594" mydata:template="Contrast" mydata:presentation="2.5" mydata:layouttype="undefined" mydata:specialfontid="undefined" mydata:id1="1038" mydata:id2="324" mydata:companyname="Pousada Floramar" mydata:companytagline="" version="1.1" xmlns="http://www.w3.org/2000/svg" xmlns:xlink="http://www.w3.org/1999/xlink" viewBox="161.6145576352646 115 226.77088472947082 240" class="watermark-logo">
  <g fill="#f6be00" fill-rule="none" stroke="none" stroke-width="1" stroke-linecap="butt" stroke-linejoin="miter" stroke-miterlimit="10" stroke-dasharray="" stroke-dashoffset="0" font-family="none" font-weight="none" font-size="none" text-anchor="none" style="mix-blend-mode: normal">
    <g data-paper-data="{&quot;isGlobalGroup&quot;:true,&quot;bounds&quot;:{&quot;x&quot;:161.6145576352646,&quot;y&quot;:115,&quot;width&quot;:226.77088472947082,&quot;height&quot;:240}}">
      <g data-paper-data="{&quot;isSecondaryText&quot;:true}" fill-rule="nonzero">
        <path d="M261.31368,326.48529c0.24372,-1.01548 -0.16248,-1.50291 -0.73115,-0.2031c-1.54353,3.29016 -10.60162,-0.12186 -13.32311,-1.54353c0.56867,-0.52805 1.50291,-1.13734 2.43715,-0.77177c0.89362,1.01548 1.0561,-0.64991 0,-0.97486c-1.82787,-0.52805 -2.9652,0.77177 -3.41202,1.2592c-2.51839,-1.58415 -6.41784,-3.49325 -10.88596,-4.71183c-13.36373,-3.77759 -20.35024,9.5049 -13.60745,13.32311c3.24954,1.86849 8.36756,0.40619 9.54552,-3.53387c0.48743,-1.46229 -0.64991,-0.73115 -0.69053,0.16248c0.04062,1.13734 -4.38688,4.99617 -8.48942,2.43715c-3.69635,-2.3153 1.46229,-12.51073 12.55135,-10.84534c3.98069,0.56867 7.5958,2.15282 11.04843,3.85883c-0.77177,0.89362 -3.98069,5.97103 -5.88979,10.64224c-3.89945,-0.69053 -8.20509,-0.853 -10.07357,3.29016c-0.2031,0.44681 0.16248,1.01548 0.64991,0.36557c1.9091,-2.76211 7.31146,-2.15282 8.85499,-2.15282c-3.85883,8.85499 -10.31729,16.41017 -19.33476,16.00398c-5.93041,-0.24372 -13.28249,-4.58997 -11.86082,-12.55135c0.48743,-2.76211 2.1122,-3.98069 3.12768,-4.71183c1.21858,-0.853 2.07158,-1.46229 0.77177,-1.0561c-1.17796,0.36557 -3.49325,1.9091 -4.2244,4.2244c-2.88397,8.85499 3.20892,16.00398 12.6732,16.00398c13.12002,0 17.50689,-10.19543 20.30962,-17.79123c2.07158,0.24372 6.78341,0.16248 8.20509,-0.2031c1.2592,-0.32495 1.29982,-0.89362 -0.08124,-0.81238c-1.66539,0.08124 -5.15864,0.08124 -7.63642,-0.24372c1.13734,-2.64025 2.80273,-7.51456 5.40236,-10.47976c0.77177,0.32495 4.79307,2.72149 9.5049,3.49325c2.76211,0.40619 4.91493,-0.81238 5.15864,-2.47777z" data-paper-data="{&quot;glyphName&quot;:&quot;F&quot;,&quot;glyphIndex&quot;:0,&quot;firstGlyphOfWord&quot;:true,&quot;word&quot;:1}" style="fill: rgb(246, 190, 0);"/>
        <path d="M260.46067,329.69421c2.92459,-6.49908 -1.46229,-7.06775 -4.34626,-2.23406c-2.35592,3.94007 -4.91493,9.78924 -6.17412,14.33859c-0.69053,2.43715 -2.64025,8.00199 1.9091,8.00199c4.10254,0 6.21474,-5.4836 7.23023,-7.63642c0.36557,-0.81238 -0.24372,-0.89362 -0.60929,-0.2031c-0.52805,1.0561 -1.66539,3.24954 -3.00582,5.15864c-2.15282,3.00582 -5.40236,2.3153 -4.18378,-2.55901c0.24372,-1.01548 0.64991,-1.99034 0.853,-2.68087c3.98069,-3.61511 6.45846,-8.00199 8.32694,-12.18577zM259.85139,329.08492c-1.58415,3.77759 -4.50874,8.57066 -7.3927,11.49525c1.2592,-3.24954 4.4275,-10.52038 6.41784,-13.32311c2.19344,-3.12768 1.78725,-0.04062 0.97486,1.82787z" data-paper-data="{&quot;glyphName&quot;:&quot;l&quot;,&quot;glyphIndex&quot;:1,&quot;word&quot;:1}" style="fill: rgb(246, 190, 0);"/>
        <path d="M272.76831,342.08308c0.28433,-0.60929 -0.40619,-0.77177 -0.60929,-0.36557c-0.97486,1.94972 -3.08706,6.98651 -5.68669,6.98651c-0.97486,0 -1.58415,-0.40619 -1.9091,-1.01548c1.54353,-1.46229 2.80273,-3.3714 3.41202,-4.79307c1.54353,-3.61511 1.09672,-7.35208 -1.99034,-7.3927c-2.76211,-0.08124 -6.13351,3.08706 -7.71766,6.82403c-1.54353,3.61511 -1.09672,7.31146 1.99034,7.3927c1.17796,0.04062 2.39654,-0.52805 3.53387,-1.38105c0.52805,0.60929 1.38105,1.0561 2.59963,1.0561c3.41202,0 5.68669,-5.76793 6.37722,-7.31146zM266.8379,336.8432c1.46229,0.44681 1.2592,3.33078 -0.32495,6.66156c-0.36557,0.77177 -0.81238,1.54353 -1.2592,2.19344c0.04062,-0.16248 0.08124,-0.28433 0.08124,-0.44681c0,-0.64991 -0.52805,-1.21858 -1.21858,-1.21858c-1.01548,0 -1.38105,0.81238 -1.42167,1.74663c0,0.60929 0.2031,1.34043 0.64991,1.99034c-0.97486,0.81238 -1.99034,1.21858 -2.76211,1.01548c-1.46229,-0.44681 -1.09672,-3.29016 0.48743,-6.62094c1.50291,-3.20892 4.0213,-5.80855 5.76793,-5.32112z" data-paper-data="{&quot;glyphName&quot;:&quot;o&quot;,&quot;glyphIndex&quot;:2,&quot;word&quot;:1}" style="fill: rgb(246, 190, 0);"/>
        <path d="M283.20745,342.28618c0.40619,-0.81238 -0.12186,-1.09672 -0.48743,-0.40619c-0.853,1.74663 -3.3714,6.82403 -5.03679,6.78341c-2.43715,-0.12186 1.70601,-7.55518 2.3153,-8.81438c0.48743,-1.01548 1.13734,-2.55901 0.853,-3.12768c-1.99034,0.2031 -4.10254,0.24372 -5.60546,0.16248c0.69053,-0.48743 1.99034,-1.58415 2.23406,-2.72149c0.56867,-2.72149 -2.07158,-3.73697 -2.47777,-1.46229c-0.81238,4.54936 -3.04644,10.68286 -6.25536,14.90726c-0.24372,0.36557 0,0.81238 0.32495,0.52805c1.99034,-1.9091 3.94007,-6.41784 4.91493,-8.97685l0.48743,-1.29982c2.27468,0.04062 3.69635,0.56867 3.12768,1.9091c-0.44681,1.01548 -1.9091,3.12768 -2.51839,4.79307c-1.62477,4.2244 0.853,5.44298 2.23406,5.11802c2.64025,-0.64991 4.71183,-4.95555 5.88979,-7.3927z" data-paper-data="{&quot;glyphName&quot;:&quot;r&quot;,&quot;glyphIndex&quot;:3,&quot;word&quot;:1}" style="fill: rgb(246, 190, 0);"/>
        <path d="M297.4648,342.24556c0.40619,-0.81238 -0.2031,-1.0561 -0.56867,-0.32495c-0.853,1.74663 -3.53387,6.90527 -5.23988,6.82403c-0.52805,0 -0.73115,-0.77177 -0.40619,-2.43715c0.52805,-2.47777 2.92459,-6.74279 3.77759,-7.5958c-0.56867,0.12186 -1.17796,-0.12186 -1.70601,-0.16248c-1.29982,-0.08124 -1.86849,0.89362 -2.76211,2.59963c-1.0561,1.99034 -2.19344,3.98069 -3.61511,5.68669c-1.9091,2.27468 -4.14316,2.59963 -3.73697,-0.24372c0.24372,-1.54353 1.34043,-3.53387 1.66539,-4.10254c1.46229,-2.39654 3.57449,-4.79307 5.40236,-5.80855c1.50291,-0.81238 3.00582,-0.48743 3.45264,1.01548c0.69053,0.12186 1.01548,-0.56867 0.44681,-1.17796c-2.3153,-2.51839 -6.98651,-1.01548 -9.42366,1.86849c-6.13351,7.35208 -3.04644,14.46045 1.62477,9.99233c1.17796,-1.13734 2.27468,-2.76211 2.92459,-3.81821c-1.21858,4.26502 0.69053,5.32112 2.03096,5.23988c2.43715,-0.2031 4.91493,-5.07741 6.13351,-7.55518z" data-paper-data="{&quot;glyphName&quot;:&quot;a&quot;,&quot;glyphIndex&quot;:4,&quot;word&quot;:1}" style="fill: rgb(246, 190, 0);"/>
        <path d="M318.05876,342.24556c0.40619,-0.81238 -0.24372,-1.09672 -0.56867,-0.36557c-0.853,1.86849 -3.45264,7.02713 -5.56484,7.02713c-0.52805,0 -0.97486,-0.36557 -0.69053,-2.03096c0.56867,-2.84335 4.87431,-10.47976 4.87431,-10.47976c-1.34043,-0.48743 -5.56484,2.07158 -7.51456,3.81821c-1.21858,1.09672 -2.55901,2.64025 -3.3714,3.65573c0.97486,-1.99034 2.23406,-3.98069 2.9652,-5.68669c0.36557,-0.81238 0.12186,-1.50291 -0.60929,-1.78725c-1.38105,-0.48743 -3.98069,2.07158 -5.93041,3.81821c-1.2592,1.09672 -2.55901,2.64025 -3.3714,3.65573c1.46229,-2.92459 3.69635,-6.98651 4.91493,-7.63642c-0.56867,0.12186 -1.17796,-0.12186 -1.70601,-0.16248c-1.29982,-0.08124 -1.82787,0.60929 -2.88397,2.55901c-1.99034,3.65573 -3.57449,7.43332 -5.52422,11.29215c0.40619,-0.24372 0.77177,-0.2031 1.34043,-0.24372c0.89362,0 1.2592,-0.04062 1.54353,-0.64991c2.3153,-4.46812 4.2244,-6.66156 5.60546,-7.92075c4.26502,-3.98069 2.9652,-1.01548 1.62477,1.74663c-0.69053,1.50291 -1.42167,2.84335 -1.70601,4.63059c-0.2031,1.17796 0.36557,2.23406 1.29982,2.23406c0.52805,-2.43715 3.98069,-6.98651 5.72731,-8.61128c3.12768,-2.92459 3.85883,-1.82787 2.88397,-0.24372c-1.13734,1.82787 -1.9091,3.20892 -2.23406,4.26502c-1.21858,3.77759 0.73115,4.75245 2.19344,4.75245c3.08706,0 5.4836,-5.15864 6.70217,-7.63642z" data-paper-data="{&quot;glyphName&quot;:&quot;m&quot;,&quot;glyphIndex&quot;:5,&quot;word&quot;:1}" style="fill: rgb(246, 190, 0);"/>
        <path d="M332.27549,342.24556c0.40619,-0.81238 -0.2031,-1.0561 -0.56867,-0.32495c-0.853,1.74663 -3.53387,6.90527 -5.23988,6.82403c-0.52805,0 -0.73115,-0.77177 -0.40619,-2.43715c0.52805,-2.47777 2.92459,-6.74279 3.77759,-7.5958c-0.56867,0.12186 -1.17796,-0.12186 -1.70601,-0.16248c-1.29982,-0.08124 -1.86849,0.89362 -2.76211,2.59963c-1.0561,1.99034 -2.19344,3.98069 -3.61511,5.68669c-1.9091,2.27468 -4.14316,2.59963 -3.73697,-0.24372c0.24372,-1.54353 1.34043,-3.53387 1.66539,-4.10254c1.46229,-2.39654 3.57449,-4.79307 5.40236,-5.80855c1.50291,-0.81238 3.00582,-0.48743 3.45264,1.01548c0.69053,0.12186 1.01548,-0.56867 0.44681,-1.17796c-2.3153,-2.51839 -6.98651,-1.01548 -9.42366,1.86849c-6.13351,7.35208 -3.04644,14.46045 1.62477,9.99233c1.17796,-1.13734 2.27468,-2.76211 2.92459,-3.81821c-1.21858,4.26502 0.69053,5.32112 2.03096,5.23988c2.43715,-0.2031 4.91493,-5.07741 6.13351,-7.55518z" data-paper-data="{&quot;glyphName&quot;:&quot;a&quot;,&quot;glyphIndex&quot;:6,&quot;word&quot;:1}" style="fill: rgb(246, 190, 0);"/>
        <path d="M342.79588,342.28618c0.40619,-0.81238 -0.12186,-1.09672 -0.48743,-0.40619c-0.853,1.74663 -3.3714,6.82403 -5.03679,6.78341c-2.43715,-0.12186 1.70601,-7.55518 2.3153,-8.81438c0.48743,-1.01548 1.13734,-2.55901 0.853,-3.12768c-1.99034,0.2031 -4.10254,0.24372 -5.60546,0.16248c0.69053,-0.48743 1.99034,-1.58415 2.23406,-2.72149c0.56867,-2.72149 -2.07158,-3.73697 -2.47777,-1.46229c-0.81238,4.54936 -3.04644,10.68286 -6.25536,14.90726c-0.24372,0.36557 0,0.81238 0.32495,0.52805c1.99034,-1.9091 3.94007,-6.41784 4.91493,-8.97685l0.48743,-1.29982c2.27468,0.04062 3.69635,0.56867 3.12768,1.9091c-0.44681,1.01548 -1.9091,3.12768 -2.51839,4.79307c-1.62477,4.2244 0.853,5.44298 2.23406,5.11802c2.64025,-0.64991 4.71183,-4.95555 5.88979,-7.3927z" data-paper-data="{&quot;glyphName&quot;:&quot;r&quot;,&quot;glyphIndex&quot;:7,&quot;lastGlyphOfWord&quot;:true,&quot;word&quot;:1}" style="fill: rgb(246, 190, 0);"/>
      </g>
      <g data-paper-data="{&quot;isPrimaryText&quot;:true}" fill-rule="nonzero">
        <path d="M161.61456,257.43634v53.81004h2.30614v-25.75195h3.61296c7.07218,0 15.75865,-3.07486 15.75865,-13.91374c0,-11.30011 -8.68648,-14.14435 -15.75865,-14.14435zM163.9207,259.74249h3.61296c6.14972,0 13.45251,2.22927 13.45251,11.83821c0,9.45519 -7.22592,11.60759 -13.45251,11.60759h-3.61296z" data-paper-data="{&quot;glyphName&quot;:&quot;P&quot;,&quot;glyphIndex&quot;:0,&quot;firstGlyphOfWord&quot;:true,&quot;word&quot;:1}" style="fill: rgb(246, 190, 0);"/>
        <path d="M184.44539,284.18762c0,15.06681 12.29944,27.05876 27.05876,27.05876c15.06681,0 27.13563,-12.06882 27.13563,-27.05876c0,-15.06681 -12.06882,-27.13563 -27.13563,-27.13563c-11.30011,0 -20.7553,6.91843 -24.90636,16.60424c-1.46056,3.2286 -2.1524,6.76469 -2.1524,10.53139zM188.67332,274.57869c3.7667,-8.76335 12.37631,-15.22055 22.83083,-15.22055c13.68312,0 24.75262,11.22324 24.75262,24.82949c0,13.83687 -11.45385,24.75262 -24.75262,24.75262c-10.14704,0 -19.06413,-6.30346 -22.75396,-15.14368c-1.30682,-3.07486 -1.99866,-6.30346 -1.99866,-9.60894c0,-3.38235 0.61497,-6.61095 1.92179,-9.60894z" data-paper-data="{&quot;glyphName&quot;:&quot;O&quot;,&quot;glyphIndex&quot;:1,&quot;word&quot;:1}" style="fill: rgb(246, 190, 0);"/>
        <path d="M242.56023,257.43634v41.04937c0,6.91843 5.68849,12.76067 12.76067,12.76067c4.99665,0 9.99329,-2.99799 11.83821,-7.84089c0.69184,-1.38369 0.99933,-2.99799 0.99933,-4.91978v-41.04937h-2.30614v41.04937c0,2.84424 -0.99933,5.45788 -3.07486,7.37966c-1.76804,1.92179 -4.76603,3.07486 -7.45653,3.07486c-2.6905,0 -5.61162,-1.15307 -7.37966,-3.07486c-1.92179,-1.76804 -3.07486,-4.68916 -3.07486,-7.37966v-41.04937z" data-paper-data="{&quot;glyphName&quot;:&quot;U&quot;,&quot;glyphIndex&quot;:2,&quot;word&quot;:1}" style="fill: rgb(246, 190, 0);"/>
        <path d="M273.53944,300.71499c2.6905,6.07285 9.30145,10.53139 15.98927,10.53139c0.15374,0 0.23061,0 0.38436,0c2.92112,0 5.68849,-0.76871 8.30212,-2.22927c2.76737,-1.30682 4.91978,-3.99732 6.22659,-6.61095c1.22994,-2.61363 1.69117,-4.68916 1.69117,-5.84223c0,-0.15374 -0.07687,-0.38436 -0.07687,-0.5381c0,-0.84559 -0.07687,-1.69117 -0.23061,-2.53676c-1.22994,-6.22659 -7.22592,-10.76201 -13.14502,-12.37631c-3.30547,-0.92246 -6.99531,-1.0762 -9.99329,-2.84424c-3.07486,-1.84492 -4.76603,-5.07352 -4.99665,-6.99531c-0.07687,-0.99933 -0.15374,-1.6143 -0.15374,-1.92179c0,-2.53676 0.99933,-5.68849 3.99732,-8.14838c1.76804,-1.46056 3.99732,-2.1524 6.84156,-2.1524c4.91978,0 10.22391,2.6905 10.45452,8.22525l2.30614,0.23061c0,-6.07285 -5.30413,-9.76268 -10.83888,-10.37765c-0.84559,-0.07687 -1.53743,-0.15374 -2.38302,-0.15374c-3.99732,0 -8.07151,1.69117 -10.53139,5.07352c-2.45989,3.38235 -2.30614,6.22659 -2.30614,7.14905c0,4.68916 2.92112,11.30011 12.45318,13.14502c7.30279,1.22994 14.37497,4.07419 15.83553,11.45385c0.15374,0.84559 0.23061,1.69117 0.23061,2.45989c0,2.45989 -0.84559,5.61162 -3.61296,8.37899c-2.6905,2.76737 -6.61095,4.45855 -10.60827,4.45855c-2.07553,0 -4.07419,-0.46123 -5.99598,-1.38369c-5.84223,-2.53676 -8.68648,-9.30145 -8.68648,-12.53005c0,-0.23061 0,-0.46123 0,-0.69184v-0.69184c0,-0.23061 0,-0.46123 0.07687,-0.69184l-2.30614,-0.15374c-0.07687,0.23061 -0.07687,0.5381 -0.07687,0.84559v0.84559c0,0.30749 0,0.61497 0,0.84559c0,1.76804 0.38436,3.53609 1.15307,5.22726z" data-paper-data="{&quot;glyphName&quot;:&quot;S&quot;,&quot;glyphIndex&quot;:3,&quot;word&quot;:1}" style="fill: rgb(246, 190, 0);"/>
        <path d="M309.05407,311.24638c1.22994,-4.68916 3.2286,-13.14502 5.22726,-21.67776h12.29944l5.22726,21.67776h2.30614l-12.99128,-53.81004h-1.46056c-0.92246,4.8429 -8.76335,35.36088 -11.83821,49.12088c-0.5381,2.07553 -0.92246,3.61296 -1.15307,4.68916zM328.19507,270.65824c0.5381,2.38302 1.0762,4.45855 1.46056,5.99598v-16.91173h5.381c13.60625,0 24.75262,11.14637 24.75262,24.75262c0,12.83754 -9.91642,23.4458 -22.29273,24.67575c0.23061,0.5381 0.15374,0.92246 0.38436,1.46056l0.15374,0.76871c13.60625,-1.6143 24.06078,-12.99128 24.06078,-26.90502c0,-14.98994 -12.06882,-27.05876 -27.05876,-27.05876h-7.68715v9.68581zM316.97183,278.65287c0.69184,-2.6905 1.22994,-5.15039 1.76804,-7.30279l1.69117,-7.07218l1.69117,6.91843c0.99933,4.3048 2.45989,9.91642 3.92045,16.06614h-11.14637c0.69184,-2.99799 1.38369,-5.84223 2.07553,-8.60961z" data-paper-data="{&quot;glyphName&quot;:&quot;ï„&quot;,&quot;glyphIndex&quot;:4,&quot;word&quot;:1}" style="fill: rgb(246, 190, 0);"/>
        <path d="M360.94232,311.24638h2.38302c1.22994,-4.68916 3.2286,-13.14502 5.22726,-21.67776h12.29944l5.22726,21.67776h2.30614l-12.99128,-53.81004h-1.46056c-0.92246,4.61229 -7.99463,32.59351 -11.37698,47.04535zM369.16757,287.26248c1.46056,-5.9191 2.84424,-11.53072 3.84357,-15.83553l1.69117,-7.07218l1.69117,6.91843c0.99933,4.3048 2.45989,9.83955 3.92045,15.98927z" data-paper-data="{&quot;glyphName&quot;:&quot;A&quot;,&quot;glyphIndex&quot;:5,&quot;lastGlyphOfWord&quot;:true,&quot;word&quot;:1}" style="fill: rgb(246, 190, 0);"/>
      </g>
      <g data-paper-data="{&quot;isIcon&quot;:&quot;true&quot;,&quot;iconType&quot;:&quot;icon&quot;,&quot;rawIconId&quot;:&quot;1352914&quot;,&quot;selectedEffects&quot;:{&quot;container&quot;:&quot;&quot;,&quot;transformation&quot;:&quot;&quot;,&quot;pattern&quot;:&quot;&quot;},&quot;isDetailed&quot;:false,&quot;fillRule&quot;:&quot;evenodd&quot;,&quot;bounds&quot;:{&quot;x&quot;:195.8908368593402,&quot;y&quot;:115,&quot;width&quot;:158.2183262813196,&quot;height&quot;:116.35770748223985},&quot;iconStyle&quot;:&quot;standalone&quot;,&quot;suitableAsStandaloneIcon&quot;:true}" fill-rule="evenodd">
        <path d="M196.19587,125.50796c-0.66767,1.24118 -0.2028,2.78861 1.03839,3.45629c26.08561,14.03256 52.50629,14.03256 78.96123,0.00729c20.65147,-10.94891 42.65191,-10.94891 63.27311,-4.35056c3.00888,0.96278 5.71164,1.99285 8.06426,3.02002c0.81654,0.35689 1.52989,0.68666 2.13318,0.98074c0.35151,0.1717 0.58334,0.28995 0.68859,0.34609c1.24303,0.66403 2.78875,0.19447 3.45327,-1.0487c0.66382,-1.24318 0.19399,-2.78923 -1.04905,-3.45319c-0.58678,-0.31354 -1.66265,-0.83793 -3.18361,-1.50217c-2.50671,-1.09452 -5.37113,-2.18621 -8.5513,-3.20376c-21.81608,-6.98068 -45.18269,-6.98068 -67.21959,4.70228c-24.95463,13.23012 -49.57171,13.23012 -74.15219,0.00729c-1.24118,-0.66767 -2.78861,-0.2028 -3.45629,1.03839zM196.19587,171.4419c-0.66767,1.24097 -0.2028,2.78875 1.03839,3.45601c26.08561,14.03317 52.50629,14.03317 78.96123,0.00757c20.65147,-10.94863 42.65191,-10.94863 63.27311,-4.35028c3.00888,0.96237 5.71164,1.99285 8.06426,3.01988c0.81654,0.35702 1.52989,0.68653 2.13318,0.98095c0.35151,0.17129 0.58334,0.2896 0.68859,0.34602c1.24303,0.66382 2.78875,0.19399 3.45327,-1.04905c0.66382,-1.24303 0.19399,-2.78875 -1.04905,-3.45327c-0.58678,-0.31368 -1.66265,-0.83786 -3.18361,-1.50169c-2.50671,-1.09514 -5.37113,-2.18615 -8.5513,-3.20424c-21.81608,-6.98081 -45.18269,-6.98081 -67.21959,4.70249c-24.95463,13.23039 -49.57171,13.23039 -74.15219,0.00757c-1.24118,-0.66795 -2.78861,-0.20293 -3.45629,1.03804zM196.19587,217.37578c-0.66767,1.24166 -0.2028,2.78875 1.03839,3.4567c26.08561,14.03249 52.50629,14.03249 78.96123,0.00688c20.65147,-10.94863 42.65191,-10.94863 63.27311,-4.35028c3.00888,0.96237 5.71164,1.99285 8.06426,3.01988c0.81654,0.35702 1.52989,0.68653 2.13318,0.98095c0.35151,0.17129 0.58334,0.2896 0.68859,0.34602c1.24303,0.66382 2.78875,0.19468 3.45327,-1.04905c0.66382,-1.24303 0.19399,-2.78875 -1.04905,-3.45258c-0.58678,-0.31368 -1.66265,-0.83855 -3.18361,-1.50238c-2.50671,-1.09445 -5.37113,-2.18615 -8.5513,-3.20356c-21.81608,-6.98081 -45.18269,-6.98081 -67.21959,4.7018c-24.95463,13.23039 -49.57171,13.23039 -74.15219,0.00757c-1.24118,-0.66795 -2.78861,-0.20293 -3.45629,1.03804z" data-paper-data="{&quot;isPathIcon&quot;:true}" style="fill: rgb(246, 190, 0);"/>
      </g>
    </g>
  </g>
</svg>
