<svg xmlns:mydata="http://www.w3.org/2000/svg" mydata:contrastcolor="003594" mydata:template="Contrast" mydata:presentation="2.5" mydata:layouttype="undefined" mydata:specialfontid="undefined" mydata:id1="1038" mydata:id2="324" mydata:companyname="Pousada Floramar" mydata:companytagline="" version="1.1" xmlns="http://www.w3.org/2000/svg" xmlns:xlink="http://www.w3.org/1999/xlink" viewBox="161.6145576352646 115 226.77088472947082 240" class="watermark-logo">
  <g fill="#f6be00" fill-rule="none" stroke="none" stroke-width="1" stroke-linecap="butt" stroke-linejoin="miter" stroke-miterlimit="10" stroke-dasharray="" stroke-dashoffset="0" font-family="none" font-weight="none" font-size="none" text-anchor="none" style="mix-blend-mode: normal">
    <g data-paper-data="{&quot;isGlobalGroup&quot;:true,&quot;bounds&quot;:{&quot;x&quot;:161.6145576352646,&quot;y&quot;:115,&quot;width&quot;:226.77088472947082,&quot;height&quot;:240}}">

     
      <g data-paper-data="{&quot;isIcon&quot;:&quot;true&quot;,&quot;iconType&quot;:&quot;icon&quot;,&quot;rawIconId&quot;:&quot;1352914&quot;,&quot;selectedEffects&quot;:{&quot;container&quot;:&quot;&quot;,&quot;transformation&quot;:&quot;&quot;,&quot;pattern&quot;:&quot;&quot;},&quot;isDetailed&quot;:false,&quot;fillRule&quot;:&quot;evenodd&quot;,&quot;bounds&quot;:{&quot;x&quot;:195.8908368593402,&quot;y&quot;:115,&quot;width&quot;:158.2183262813196,&quot;height&quot;:116.35770748223985},&quot;iconStyle&quot;:&quot;standalone&quot;,&quot;suitableAsStandaloneIcon&quot;:true}" fill-rule="evenodd">
        <path d="M196.19587,125.50796c-0.66767,1.24118 -0.2028,2.78861 1.03839,3.45629c26.08561,14.03256 52.50629,14.03256 78.96123,0.00729c20.65147,-10.94891 42.65191,-10.94891 63.27311,-4.35056c3.00888,0.96278 5.71164,1.99285 8.06426,3.02002c0.81654,0.35689 1.52989,0.68666 2.13318,0.98074c0.35151,0.1717 0.58334,0.28995 0.68859,0.34609c1.24303,0.66403 2.78875,0.19447 3.45327,-1.0487c0.66382,-1.24318 0.19399,-2.78923 -1.04905,-3.45319c-0.58678,-0.31354 -1.66265,-0.83793 -3.18361,-1.50217c-2.50671,-1.09452 -5.37113,-2.18621 -8.5513,-3.20376c-21.81608,-6.98068 -45.18269,-6.98068 -67.21959,4.70228c-24.95463,13.23012 -49.57171,13.23012 -74.15219,0.00729c-1.24118,-0.66767 -2.78861,-0.2028 -3.45629,1.03839zM196.19587,171.4419c-0.66767,1.24097 -0.2028,2.78875 1.03839,3.45601c26.08561,14.03317 52.50629,14.03317 78.96123,0.00757c20.65147,-10.94863 42.65191,-10.94863 63.27311,-4.35028c3.00888,0.96237 5.71164,1.99285 8.06426,3.01988c0.81654,0.35702 1.52989,0.68653 2.13318,0.98095c0.35151,0.17129 0.58334,0.2896 0.68859,0.34602c1.24303,0.66382 2.78875,0.19399 3.45327,-1.04905c0.66382,-1.24303 0.19399,-2.78875 -1.04905,-3.45327c-0.58678,-0.31368 -1.66265,-0.83786 -3.18361,-1.50169c-2.50671,-1.09514 -5.37113,-2.18615 -8.5513,-3.20424c-21.81608,-6.98081 -45.18269,-6.98081 -67.21959,4.70249c-24.95463,13.23039 -49.57171,13.23039 -74.15219,0.00757c-1.24118,-0.66795 -2.78861,-0.20293 -3.45629,1.03804zM196.19587,217.37578c-0.66767,1.24166 -0.2028,2.78875 1.03839,3.4567c26.08561,14.03249 52.50629,14.03249 78.96123,0.00688c20.65147,-10.94863 42.65191,-10.94863 63.27311,-4.35028c3.00888,0.96237 5.71164,1.99285 8.06426,3.01988c0.81654,0.35702 1.52989,0.68653 2.13318,0.98095c0.35151,0.17129 0.58334,0.2896 0.68859,0.34602c1.24303,0.66382 2.78875,0.19468 3.45327,-1.04905c0.66382,-1.24303 0.19399,-2.78875 -1.04905,-3.45258c-0.58678,-0.31368 -1.66265,-0.83855 -3.18361,-1.50238c-2.50671,-1.09445 -5.37113,-2.18615 -8.5513,-3.20356c-21.81608,-6.98081 -45.18269,-6.98081 -67.21959,4.7018c-24.95463,13.23039 -49.57171,13.23039 -74.15219,0.00757c-1.24118,-0.66795 -2.78861,-0.20293 -3.45629,1.03804z" data-paper-data="{&quot;isPathIcon&quot;:true}" style="fill: rgb(246, 190, 0);"/>
      </g>
    </g>
  </g>
</svg>
